<svg width="20" height="26" viewBox="0 0 20 26" fill="none" xmlns="http://www.w3.org/2000/svg">
<path fill-rule="evenodd" clip-rule="evenodd" d="M14.25 9.45837H16.5025C17.7634 9.45837 18.3867 10.9884 17.4942 11.8809L10.9917 18.3834C10.4392 18.9359 9.54671 18.9359 8.99421 18.3834L2.49171 11.8809C1.59921 10.9884 2.23671 9.45837 3.49755 9.45837H5.75005V2.37504C5.75005 1.59587 6.38755 0.958374 7.16671 0.958374H12.8334C13.6125 0.958374 14.25 1.59587 14.25 2.37504V9.45837ZM1.50004 25.0417C0.720874 25.0417 0.083374 24.4042 0.083374 23.6251C0.083374 22.8459 0.720874 22.2084 1.50004 22.2084H18.5C19.2792 22.2084 19.9167 22.8459 19.9167 23.6251C19.9167 24.4042 19.2792 25.0417 18.5 25.0417H1.50004Z" fill="white"/>
</svg>
