<svg width="37" height="36" viewBox="0 0 37 36" fill="none" xmlns="http://www.w3.org/2000/svg">
<path fill-rule="evenodd" clip-rule="evenodd" d="M21.5834 4.5C21.5834 3.67157 22.2736 3 23.125 3H32.375C33.2265 3 33.9167 3.67157 33.9167 4.5V13.5C33.9167 14.3284 33.2265 15 32.375 15C31.5236 15 30.8334 14.3284 30.8334 13.5V6H23.125C22.2736 6 21.5834 5.32843 21.5834 4.5Z" fill="white"/>
<path fill-rule="evenodd" clip-rule="evenodd" d="M4.62504 21C5.47648 21 6.16671 21.6716 6.16671 22.5V30H13.875C14.7265 30 15.4167 30.6716 15.4167 31.5C15.4167 32.3284 14.7265 33 13.875 33H4.62504C3.7736 33 3.08337 32.3284 3.08337 31.5V22.5C3.08337 21.6716 3.7736 21 4.62504 21Z" fill="white"/>
<path fill-rule="evenodd" clip-rule="evenodd" d="M33.4651 3.43934C34.0671 4.02513 34.0671 4.97487 33.4651 5.56066L22.6734 16.0607C22.0714 16.6464 21.0952 16.6464 20.4932 16.0607C19.8911 15.4749 19.8911 14.5251 20.4932 13.9393L31.2848 3.43934C31.8869 2.85355 32.863 2.85355 33.4651 3.43934Z" fill="white"/>
<path fill-rule="evenodd" clip-rule="evenodd" d="M16.5068 19.9393C17.1089 20.5251 17.1089 21.4749 16.5068 22.0607L5.71516 32.5607C5.11311 33.1464 4.13698 33.1464 3.53492 32.5607C2.93286 31.9749 2.93286 31.0251 3.53492 30.4393L14.3266 19.9393C14.9286 19.3536 15.9048 19.3536 16.5068 19.9393Z" fill="white"/>
</svg>
