<svg width="22" height="20" viewBox="0 0 22 20" fill="none" xmlns="http://www.w3.org/2000/svg">
<path fill-rule="evenodd" clip-rule="evenodd" d="M2.48939 10.0018C2.48939 4.53099 7.00689 0.100161 12.5211 0.251828C17.6019 0.392661 21.8486 4.63933 21.9894 9.72016C22.1411 15.2343 17.7102 19.7518 12.2394 19.7518C9.97523 19.7518 7.90606 18.9827 6.25939 17.6827C5.75023 17.2927 5.71773 16.5235 6.17273 16.0685C6.56273 15.6785 7.16939 15.646 7.60273 15.9818C8.88106 16.9893 10.4952 17.5852 12.2394 17.5852C16.4644 17.5852 19.8769 14.1293 19.8227 9.89349C19.7686 5.86349 16.3777 2.47266 12.3477 2.41849C8.10106 2.36433 4.65606 5.77683 4.65606 10.0018H6.59523C7.08273 10.0018 7.32106 10.5868 6.98523 10.9227L3.96273 13.956C3.74606 14.1727 3.41023 14.1727 3.19356 13.956L0.171059 10.9227C-0.175607 10.5868 0.0627259 10.0018 0.550226 10.0018H2.48939ZM11.1561 6.48099C11.1561 6.03683 11.5244 5.66849 11.9686 5.66849C12.4127 5.66849 12.7811 6.03683 12.7811 6.47016V10.1535L15.9011 12.006C16.2802 12.2335 16.4102 12.7318 16.1827 13.1218C15.9552 13.501 15.4569 13.631 15.0669 13.4035L11.6869 11.3993C11.3619 11.2043 11.1561 10.8468 11.1561 10.4677V6.48099Z" fill="white"/>
</svg>
