<svg width="57" height="57" viewBox="0 0 57 57" fill="none" xmlns="http://www.w3.org/2000/svg">
<g filter="url(#filter0_d)">
<rect x="4" y="4" width="48.5284" height="48.5284" rx="8" fill="white"/>
</g>
<path fill-rule="evenodd" clip-rule="evenodd" d="M20.2929 27.2929C19.9024 27.6834 19.9024 28.3166 20.2929 28.7071C20.6834 29.0976 21.3166 29.0976 21.7071 28.7071L27 23.4142L27 35C27 35.5523 27.4477 36 28 36C28.5523 36 29 35.5523 29 35L29 23.4142L34.2929 28.7071C34.6834 29.0976 35.3166 29.0976 35.7071 28.7071C36.0976 28.3166 36.0976 27.6834 35.7071 27.2929L28.7071 20.2929C28.3166 19.9024 27.6834 19.9024 27.2929 20.2929L20.2929 27.2929Z" fill="#828282"/>
<defs>
<filter id="filter0_d" x="0" y="0" width="56.5284" height="56.5284" filterUnits="userSpaceOnUse" color-interpolation-filters="sRGB">
<feFlood flood-opacity="0" result="BackgroundImageFix"/>
<feColorMatrix in="SourceAlpha" type="matrix" values="0 0 0 0 0 0 0 0 0 0 0 0 0 0 0 0 0 0 127 0" result="hardAlpha"/>
<feOffset/>
<feGaussianBlur stdDeviation="2"/>
<feColorMatrix type="matrix" values="0 0 0 0 0 0 0 0 0 0 0 0 0 0 0 0 0 0 0.25 0"/>
<feBlend mode="normal" in2="BackgroundImageFix" result="effect1_dropShadow"/>
<feBlend mode="normal" in="SourceGraphic" in2="effect1_dropShadow" result="shape"/>
</filter>
</defs>
</svg>
